#!OML:ASF \\sashay\E\Suitcase\Project 1\Capture day 1\Session 1\Male1.ASF
:FULLY-SPECIFIED
:DEGREES
1200
root -2.13166 17.486 9.81685 5.53764 3.96558 -1.98165
lowerback 3.95536 -2.19932 2.21456
upperback -1.97595 -2.69884 2.77539
thorax -4.22815 -1.36177 1.83134
lowerneck -13.2172 -4.70234 -10.6428
upperneck 17.3585 -4.1484 -0.124781
head 7.80498 -2.68957 1.2448
rclavicle 8.15017e-015 2.46493e-014
rhumerus -23.5566 -29.7075 -66.7387
rradius 18.5875
rwrist -2.51817
rhand -9.90608 21.615
rfingers 7.12502
rthumb 16.0741 -7.73832
lclavicle 8.15017e-015 2.46493e-014
lhumerus -36.8629 -5.19001 89.7279
lradius 35.641
lwrist -3.50349
lhand 0.772215 44.0363
lfingers 7.12502
lthumb 26.3298 72.2287
rfemur -7.45391 -2.10405 26.5745
rtibia 17.4068
rfoot -13.1462 -17.0932
rtoes 18.7181
lfemur -7.59699 -7.378 -7.56707
ltibia 15.5613
lfoot -9.95491 8.29468
ltoes -3.45367
1201
root -2.13563 17.4827 9.82371 5.561 3.86141 -1.9327
lowerback 4.03804 -2.18749 2.08409
upperback -1.99607 -2.68633 2.787
thorax -4.28931 -1.35179 1.91969
lowerneck -13.0502 -4.66822 -10.6877
upperneck 17.0913 -4.15705 0.070715
head 7.69097 -2.67004 1.32102
rclavicle 2.62893e-014 -7.15625e-015
rhumerus -23.6827 -30.0826 -66.4667
rradius 17.9144
rwrist -2.04305
rhand -9.93821 21.4842
rfingers 7.12502
rthumb 16.0431 -7.87156
lclavicle 2.62893e-014 -7.15625e-015
lhumerus -37.0605 -5.02029 89.7157
lradius 35.9652
lwrist -3.87166
lhand 0.938414 44.3401
lfingers 7.12502
lthumb 26.4889 72.5086
rfemur -7.4193 -2.03552 26.5453
rtibia 17.3773
rfoot -13.1579 -17.0709
rtoes 18.8557
lfemur -7.62226 -7.39157 -7.61052
ltibia 15.6174
lfoot -9.90125 8.42472
ltoes -2.83134
1202
root -2.13592 17.4828 9.83012 5.56445 3.92234 -2.06243
lowerback 4.21881 -2.24012 2.28015
upperback -2.08842 -2.73399 2.79122
thorax -4.49668 -1.38091 1.83035
lowerneck -13.1922 -4.64564 -10.4954
upperneck 17.3579 -4.10462 -0.132684
head 7.79319 -2.6601 1.22457
rclavicle 9.49197e-015 -1.59028e-015
rhumerus -24.1628 -30.2471 -66.2601
rradius 17.9009
rwrist -1.80951
rhand -9.75507 21.1061
rfingers 7.12502
rthumb 16.2195 -8.23544
lclavicle 9.49197e-015 -1.59028e-015
lhumerus -37.3992 -5.37375 89.8525
lradius 36.3017
lwrist -3.39251
lhand -0.13439 43.9654
lfingers 7.12502
lthumb 25.4616 72.2846
rfemur -7.43297 -2.23036 26.6871
rtibia 17.3827
rfoot -13.0545 -16.9965
rtoes 18.4314
lfemur -7.58618 -7.32586 -7.45286
ltibia 15.6122
lfoot -10.0381 8.34279
ltoes -3.37413
1203
root -2.13902 17.4823 9.83394 5.59102 3.95549 -2.07912
lowerback 4.30859 -2.28139 2.2842
upperback -2.09046 -2.78434 2.8069
thorax -4.5486 -1.40571 1.85285
lowerneck -13.2042 -4.66975 -10.5673
upperneck 17.2564 -4.11821 -0.155478
head 7.76413 -2.67013 1.22715
rclavicle 4.13472e-014 -3.33958e-014
rhumerus -24.295 -30.6631 -66.023
rradius 17.511
rwrist -1.183
rhand -9.59999 20.9843
rfingers 7.12502
rthumb 16.3688 -8.34499
lclavicle 4.13472e-014 -3.33958e-014
lhumerus -37.4399 -5.3158 89.8194
lradius 36.3712
lwrist -3.46378
lhand 0.200881 44.3088
lfingers 7.12502
lthumb 25.7828 72.5818
rfemur -7.45696 -2.14306 26.723
rtibia 17.4426
rfoot -13.2228 -17.0303
rtoes 17.5901
lfemur -7.62249 -7.3068 -7.41064
ltibia 15.6045
lfoot -9.61682 8.55162
ltoes -0.570312
1204
root -2.14398 17.4817 9.84509 5.6321 3.9305 -2.04368
lowerback 4.31475 -2.28668 2.19883
upperback -2.13143 -2.7945 2.82493
thorax -4.58954 -1.40804 1.92172
lowerneck -12.9239 -4.63364 -10.6198
upperneck 17.1446 -4.11536 -0.0563518
head 7.68033 -2.65973 1.27509
rclavicle -1.30204e-014 1.19271e-014
rhumerus -24.6302 -30.8201 -65.7241
rradius 17.0782
rwrist -0.99614
rhand -9.92449 21.9453
rfingers 7.12502
rthumb 16.0564 -7.40946
lclavicle -1.30204e-014 1.19271e-014
lhumerus -37.6178 -5.38315 89.9296
lradius 36.5836
lwrist -3.32922
lhand 0.39669 44.6039
lfingers 7.12502
lthumb 25.9703 72.8495
rfemur -7.46147 -2.23672 26.7069
rtibia 17.4645
rfoot -13.2207 -16.9284
rtoes 17.2086
lfemur -7.5837 -7.28704 -7.43455
ltibia 15.5507
lfoot -10.0415 8.24182
ltoes -3.71107
1205
root -2.14036 17.4817 9.85368 5.62986 3.81604 -1.81076
lowerback 4.31129 -2.29806 2.04487
upperback -1.99559 -2.82909 2.70332
thorax -4.44364 -1.42251 1.87929
lowerneck -13.1929 -4.60205 -10.2382
upperneck 17.1117 -4.07793 -0.273101
head 7.69977 -2.63622 1.1423
rclavicle 7.85199e-015 -2.54444e-014
rhumerus -24.6797 -31.5881 -65.6449
rradius 16.8236
rwrist -0.240835
rhand -9.93998 21.2733
rfingers 7.12502
rthumb 16.0414 -8.08262
lclavicle 7.85199e-015 -2.54444e-014
lhumerus -37.4226 -5.35321 89.7885
lradius 36.5897
lwrist -3.52154
lhand 0.539772 44.4518
lfingers 7.12502
lthumb 26.1073 72.6772
rfemur -7.41321 -2.41445 26.411
rtibia 17.4784
rfoot -13.2907 -16.6662
rtoes 17.7098
lfemur -7.49214 -7.2867 -7.73742
ltibia 15.5734
lfoot -10.6461 8.07224
ltoes -3.48687
1206
root -2.13556 17.4865 9.86521 5.71888 3.87014 -1.72097
lowerback 4.24786 -2.36147 2.13319
upperback -1.99611 -2.91404 2.62278
thorax -4.41556 -1.46847 1.75053
lowerneck -13.5183 -4.48944 -10.1618
upperneck 17.2979 -3.92471 -0.125011
head 7.81088 -2.54997 1.18918
rclavicle 2.85753e-014 -1.59028e-015
rhumerus -25.2981 -31.9386 -65.4659
rradius 16.9695
rwrist 0.0580882
rhand -9.86254 20.8011
rfingers 7.12502
rthumb 16.116 -8.54884
lclavicle 2.85753e-014 -1.59028e-015
lhumerus -37.4077 -5.53177 89.7479
lradius 36.6261
lwrist -3.20593
lhand 0.537801 44.3364
lfingers 7.12502
lthumb 26.1054 72.5622
rfemur -7.55136 -2.77904 26.2599
rtibia 17.5595
rfoot -13.2313 -16.3683
rtoes 17.1529
lfemur -7.48026 -7.40786 -7.85064
ltibia 15.4716
lfoot -10.8816 7.84451
ltoes -6.56013
